<svg xmlns="http://www.w3.org/2000/svg" viewBox="0 0 256 256" width="256" height="256">
  <rect width="256" height="256" rx="16" ry="16" fill="#111"/>

  <g stroke="#064e3b" stroke-width="0.8">
    <line x1="28" y1="28" x2="28" y2="228"/>
    <line x1="62" y1="28" x2="62" y2="228"/>
    <line x1="96" y1="28" x2="96" y2="228"/>
    <line x1="130" y1="28" x2="130" y2="228"/>
    <line x1="164" y1="28" x2="164" y2="228"/>
    <line x1="198" y1="28" x2="198" y2="228"/>
    <line x1="228" y1="28" x2="228" y2="228"/>
    <line x1="28" y1="28" x2="228" y2="28"/>
    <line x1="28" y1="62" x2="228" y2="62"/>
    <line x1="28" y1="96" x2="228" y2="96"/>
    <line x1="28" y1="130" x2="228" y2="130"/>
    <line x1="28" y1="164" x2="228" y2="164"/>
    <line x1="28" y1="198" x2="228" y2="198"/>
    <line x1="28" y1="228" x2="228" y2="228"/>
  </g>

  <rect x="29" y="29" width="33" height="33" fill="#34d399" opacity="0.25"/>
  <rect x="63" y="29" width="33" height="33" fill="#10b981" opacity="0.12"/>
  <rect x="29" y="63" width="33" height="33" fill="#10b981" opacity="0.12"/>

  <rect x="97" y="63" width="33" height="33" fill="#34d399" opacity="0.3"/>
  <rect x="131" y="63" width="33" height="33" fill="#10b981" opacity="0.15"/>
  <rect x="97" y="97" width="33" height="33" fill="#10b981" opacity="0.15"/>
  <rect x="131" y="97" width="33" height="33" fill="#6ee7b7" opacity="0.08"/>

  <rect x="165" y="131" width="33" height="33" fill="#34d399" opacity="0.35"/>
  <rect x="199" y="131" width="29" height="33" fill="#10b981" opacity="0.18"/>
  <rect x="165" y="165" width="33" height="33" fill="#10b981" opacity="0.18"/>
  <rect x="199" y="165" width="29" height="33" fill="#34d399" opacity="0.25"/>

  <rect x="63" y="165" width="33" height="33" fill="#10b981" opacity="0.1"/>
  <rect x="29" y="199" width="33" height="29" fill="#6ee7b7" opacity="0.06"/>
  <rect x="131" y="199" width="33" height="29" fill="#10b981" opacity="0.1"/>

  <rect x="165" y="29" width="33" height="33" fill="#6ee7b7" opacity="0.06"/>
  <rect x="29" y="131" width="33" height="33" fill="#6ee7b7" opacity="0.06"/>
</svg>
