<svg xmlns="http://www.w3.org/2000/svg" viewBox="0 0 256 256" width="256" height="256">
  <rect width="256" height="256" rx="16" ry="16" fill="#0f1729"/>

  <g stroke="#3b82f6" stroke-width="0.5" opacity="0.3">
    <line x1="28" y1="28" x2="28" y2="228"/>
    <line x1="68" y1="28" x2="68" y2="228"/>
    <line x1="108" y1="28" x2="108" y2="228"/>
    <line x1="148" y1="28" x2="148" y2="228"/>
    <line x1="188" y1="28" x2="188" y2="228"/>
    <line x1="228" y1="28" x2="228" y2="228"/>
    <line x1="28" y1="28" x2="228" y2="28"/>
    <line x1="28" y1="68" x2="228" y2="68"/>
    <line x1="28" y1="108" x2="228" y2="108"/>
    <line x1="28" y1="148" x2="228" y2="148"/>
    <line x1="28" y1="188" x2="228" y2="188"/>
    <line x1="28" y1="228" x2="228" y2="228"/>
  </g>

  <circle cx="42" cy="42" r="4" fill="#60a5fa"/>
  <circle cx="55" cy="52" r="4" fill="#60a5fa"/>
  <circle cx="48" cy="58" r="3.5" fill="#60a5fa" opacity="0.8"/>

  <circle cx="82" cy="45" r="3.5" fill="#60a5fa" opacity="0.75"/>
  <circle cx="95" cy="55" r="4" fill="#60a5fa"/>

  <circle cx="120" cy="85" r="4" fill="#60a5fa"/>
  <circle cx="135" cy="92" r="3.5" fill="#60a5fa" opacity="0.8"/>

  <circle cx="160" cy="42" r="3.5" fill="#60a5fa" opacity="0.7"/>
  <circle cx="175" cy="50" r="4" fill="#60a5fa"/>
  <circle cx="168" cy="55" r="3.5" fill="#60a5fa" opacity="0.75"/>

  <circle cx="200" cy="82" r="4" fill="#60a5fa"/>
  <circle cx="215" cy="95" r="3.5" fill="#60a5fa" opacity="0.7"/>

  <circle cx="45" cy="125" r="3.5" fill="#60a5fa" opacity="0.65"/>
  <circle cx="55" cy="135" r="4" fill="#60a5fa"/>

  <circle cx="85" cy="165" r="4" fill="#60a5fa"/>
  <circle cx="95" cy="175" r="3.5" fill="#60a5fa" opacity="0.7"/>

  <circle cx="155" cy="160" r="4" fill="#60a5fa"/>
  <circle cx="165" cy="172" r="3.5" fill="#60a5fa" opacity="0.75"/>
  <circle cx="175" cy="165" r="4" fill="#60a5fa"/>

  <circle cx="200" cy="200" r="4" fill="#60a5fa"/>
  <circle cx="215" cy="210" r="3.5" fill="#60a5fa" opacity="0.7"/>

  <circle cx="50" cy="205" r="3.5" fill="#60a5fa" opacity="0.6"/>
  <circle cx="120" cy="210" r="4" fill="#60a5fa" opacity="0.65"/>

  <rect x="28" y="28" width="40" height="40" fill="#f59e0b" fill-opacity="0.12" stroke="#f59e0b" stroke-width="1.5" stroke-opacity="0.7"/>
  <rect x="148" y="148" width="40" height="40" fill="#f59e0b" fill-opacity="0.12" stroke="#f59e0b" stroke-width="1.5" stroke-opacity="0.7"/>
</svg>
